<svg width="120" height="120" viewBox="0 0 120 120" fill="none" xmlns="http://www.w3.org/2000/svg">
<g clip-path="url(#clip0_15_2)">
<path d="M89.7567 90.9735C88.8264 90.9735 88.073 90.2201 88.073 89.2898V79.5416C88.073 79.1223 88.2237 78.7423 88.4792 78.4475L80.3032 69.1644C80.2836 69.1644 80.2639 69.1644 80.2442 69.1644H70.496C69.5657 69.1644 68.8123 68.411 68.8123 67.4807V57.7325C68.8123 56.8022 69.5657 56.0488 70.496 56.0488H80.2442C80.3098 56.0488 80.3753 56.0554 80.4408 56.0619L87.4375 48.3118C87.2606 48.0497 87.1558 47.7287 87.1558 47.3881V37.6398C87.1558 37.6136 87.1624 37.5874 87.1624 37.5612L81.0697 28.8546C80.8928 28.9266 80.7028 28.9725 80.4997 28.9725H72.2583C71.4721 28.9725 70.8301 28.337 70.8301 27.5443V19.3028C70.8301 18.5167 71.4721 17.8747 72.2583 17.8747H80.4997C80.5784 17.8747 80.6504 17.8812 80.7225 17.8943L87.2213 10.9631C85.0398 -2.01493 65.0388 -0.285399 65.0388 13.7081V107.882C66.8011 118.915 80.8273 119.517 85.3608 109.114C94.2115 112.724 105.159 103.224 102.204 94.0526L99.4984 90.9735H89.7567ZM71.9307 39.2645C71.9307 38.3342 72.6841 37.5808 73.6144 37.5808H79.0454C79.9756 37.5808 80.729 38.3342 80.729 39.2645V44.6955C80.729 45.6258 79.9756 46.3792 79.0454 46.3792H73.6144C72.6841 46.3792 71.9307 45.6258 71.9307 44.6955V39.2645ZM90.2742 99.9422C90.2742 100.872 89.5208 101.632 88.5905 101.632H85.7211C84.7974 101.632 84.0374 100.872 84.0374 99.9422V97.0793C84.0374 96.9155 84.0636 96.7648 84.1029 96.6207L79.1109 90.9735C79.0912 90.9735 79.065 90.9735 79.0454 90.9735H73.6144C72.6841 90.9735 71.9307 90.2201 71.9307 89.2898V83.8589C71.9307 82.9286 72.6841 82.1752 73.6144 82.1752H79.0454C79.9756 82.1752 80.729 82.9286 80.729 83.8589V89.2898C80.729 89.5257 80.6832 89.7419 80.598 89.945L85.4394 95.4218C85.5311 95.4022 85.6294 95.3956 85.7211 95.3956H88.5905C89.5208 95.3956 90.2742 96.149 90.2742 97.0793V99.9422Z" fill="#1B3B6F"/>
<path d="M70.496 106.611H73.3589C74.2892 106.611 75.0426 105.858 75.0426 104.928V102.058C75.0426 101.128 74.2892 100.375 73.3589 100.375H70.496C69.5657 100.375 68.8123 101.128 68.8123 102.058V104.928C68.8123 105.858 69.5657 106.611 70.496 106.611Z" fill="#1B3B6F"/>
<path d="M111.225 71.418H108.356C107.425 71.418 106.672 70.6646 106.672 69.7344V66.8649C106.672 65.9346 107.425 65.1812 108.356 65.1812H111.225C112.155 65.1812 112.909 65.9346 112.909 66.8649V69.7344C112.909 69.9112 112.883 70.075 112.83 70.2323L114.783 72.4793C122.913 67.7297 121.059 53.769 112.562 51.1485L103.966 59.1148C103.973 59.1541 103.973 59.1999 103.973 59.2393V64.6768C103.973 65.6071 103.22 66.3605 102.289 66.3605H96.8583C95.928 66.3605 95.1746 65.6071 95.1746 64.6768V59.2393C95.1746 58.309 95.928 57.5556 96.8583 57.5556H102.289C102.499 57.5556 102.702 57.5949 102.885 57.667L114.684 46.7395C116.25 41.2495 114.462 32.8967 105.224 31.2785L100.121 36.9388C100.219 37.1484 100.278 37.3908 100.278 37.6398V47.388C100.278 48.3183 99.5247 49.0717 98.5944 49.0717H89.1671L81.8363 57.1953C81.8952 57.3656 81.928 57.5425 81.928 57.7325V67.4807C81.928 67.71 81.8821 67.9328 81.797 68.1359L90.3464 77.8579H99.505C100.435 77.8579 101.189 78.6113 101.189 79.5416V89.2898C101.189 89.5453 101.13 89.7877 101.031 90.0039L104.209 93.6137C111.9 93.6006 119.552 83.754 115.097 75.5846L111.468 71.3984C111.389 71.4115 111.304 71.418 111.225 71.418Z" fill="#1B3B6F"/>
<path d="M81.928 19.3029V26.9547L88.2958 36.0479C88.4661 35.9889 88.6496 35.9561 88.8395 35.9561H98.5878L105.1 28.7432C107.596 19.2046 97.3562 9.63977 87.4572 13.3412L81.9214 19.2439C81.928 19.2636 81.928 19.2832 81.928 19.3029ZM91.1914 22.9192C91.1914 21.9889 91.9448 21.2355 92.8751 21.2355H95.7446C96.6683 21.2355 97.4282 21.9889 97.4282 22.9192V25.7886C97.4282 26.7189 96.6683 27.4723 95.7446 27.4723H92.8751C91.9448 27.4723 91.1914 26.7189 91.1914 25.7886V22.9192Z" fill="#1B3B6F"/>
<mask id="mask0_15_2" style="mask-type:luminance" maskUnits="userSpaceOnUse" x="0" y="-1" width="61" height="121">
<path d="M0.528625 -0.776718H60.4071V119.976H0.528625V-0.776718Z" fill="white"/>
</mask>
<g mask="url(#mask0_15_2)">
<path d="M47.7894 118.318C43.6752 118.318 38.9583 116.209 36.1872 111.269C31.503 112.475 26.2293 110.896 22.3378 107.011C19.0229 103.703 17.5226 99.4378 18.1254 95.3825C16.3172 95.3629 14.4698 94.8912 12.6682 93.9675C10.1721 92.6834 7.95782 90.6001 6.43138 88.1041C4.91804 85.6277 4.17775 82.9024 4.27601 80.236C4.36773 77.9431 5.08837 75.7419 6.38552 73.77C4.64944 72.6628 3.24747 71.1364 2.25823 69.2627C1.05935 66.9829 0.5287 64.3034 0.718686 61.5257C1.07245 56.5402 3.6471 52.3277 7.40096 50.2903C5.60592 47.4601 4.9639 43.1691 5.96624 39.2645C7.21098 34.3838 10.7487 31.0165 15.8128 29.7718C14.3584 25.0614 15.5442 19.9449 19.1277 15.9748C22.8816 11.8213 28.2929 10.0132 33.4291 11.0548C33.8484 8.04782 35.1324 5.50594 37.1895 3.61262C39.4497 1.52933 42.5157 0.382858 45.824 0.382858C49.2045 0.382858 52.526 1.62104 54.9434 3.76985C56.876 5.49283 59.182 8.61778 59.182 13.7081V107.882C59.182 107.981 59.1689 108.072 59.1558 108.164C58.2714 113.706 54.4782 117.559 49.2569 118.227C48.7787 118.286 48.2873 118.318 47.7894 118.318ZM37.0912 107.345C37.7726 107.345 38.4211 107.745 38.7094 108.406C40.8778 113.379 45.3458 115.161 48.8114 114.715C52.4277 114.257 54.9696 111.656 55.6444 107.738V13.7081C55.6444 7.28132 50.7047 3.92053 45.824 3.92053C43.4066 3.92053 41.1858 4.73289 39.5807 6.21347C37.766 7.88404 36.803 10.3539 36.803 13.3543C36.803 13.9374 36.5213 14.4811 36.043 14.8087C35.5648 15.1428 34.9555 15.2149 34.4118 15.0118C30.0421 13.3543 25.0697 14.6646 21.7548 18.3398C19.2915 21.0717 17.4964 25.651 19.8352 30.3417C20.0973 30.8527 20.0842 31.462 19.809 31.973C19.5339 32.4774 19.0294 32.8181 18.4595 32.8836C12.3144 33.5846 10.1328 37.2205 9.38599 40.1424C8.37055 44.1256 9.64804 48.2987 11.43 49.5565C11.9934 49.9562 12.2751 50.6506 12.1441 51.3319C12.0196 52.0133 11.502 52.557 10.8338 52.7208C6.64757 53.7493 4.51186 58.0077 4.24981 61.7681C4.00086 65.3254 5.31111 69.7606 9.73976 71.536C10.277 71.7456 10.6766 72.2108 10.8076 72.7807C10.9386 73.3441 10.7814 73.9337 10.3883 74.3661C7.3158 77.74 6.96203 82.1883 9.4515 86.2632C11.941 90.3512 16.4024 92.5983 20.0514 91.6156C20.7 91.4387 21.3944 91.6483 21.8334 92.1462C22.2789 92.6507 22.4033 93.3647 22.1478 93.9806C20.7328 97.4789 21.7351 101.416 24.8338 104.508C28.1619 107.83 32.7084 108.989 36.423 107.476C36.6392 107.384 36.8685 107.345 37.0912 107.345Z" fill="#1B3B6F"/>
</g>
<path d="M42.6728 22.7685C42.5745 22.7685 42.4762 22.7619 42.378 22.7423C38.8207 22.1527 36.2722 20.6524 34.7982 18.2809C33.1735 15.6735 32.9769 12.1096 34.2282 7.98231C34.5099 7.05203 35.4992 6.52138 36.4294 6.80308C37.3663 7.08479 37.8969 8.07402 37.6087 9.01085C36.6653 12.1358 36.7308 14.6973 37.7987 16.4138C38.7158 17.8812 40.4519 18.8377 42.9545 19.257C43.9175 19.4142 44.5726 20.3249 44.4089 21.2879C44.2647 22.1527 43.5179 22.7685 42.6728 22.7685Z" fill="#1B3B6F"/>
<path d="M15.4131 54.6993C13.0612 54.6993 10.6896 53.6642 9.21558 52.3081C8.49494 51.6464 8.44909 50.5261 9.11076 49.8055C9.76589 49.0914 10.8861 49.039 11.6068 49.7007C12.6615 50.6703 15.1248 51.6529 16.8019 50.893C17.6929 50.4868 18.7411 50.8799 19.1473 51.7643C19.5469 52.6553 19.1604 53.7035 18.2694 54.1097C17.3653 54.5224 16.3892 54.6993 15.4131 54.6993Z" fill="#1B3B6F"/>
<path d="M37.0847 110.857C36.351 110.857 35.6631 110.398 35.4141 109.664C35.0931 108.741 35.5845 107.732 36.5017 107.417C38.5129 106.723 42.0964 104.397 42.804 100.093C42.9612 99.1233 43.8718 98.4747 44.8348 98.6319C45.7979 98.7892 46.453 99.6998 46.2958 100.663C45.4376 105.871 41.343 109.481 37.6612 110.758C37.4712 110.824 37.2747 110.857 37.0847 110.857Z" fill="#1B3B6F"/>
<path d="M29.9307 39.3497C29.197 39.3497 28.5091 38.8846 28.2601 38.1508C26.6289 33.3684 21.1193 32.615 18.4333 32.8902C17.4637 32.9884 16.5924 32.2743 16.4941 31.3048C16.4024 30.3352 17.1099 29.4704 18.0795 29.3721C20.6214 29.1166 23.3664 29.549 25.62 30.5645C28.5484 31.8813 30.612 34.1087 31.6013 37.0109C31.9223 37.9346 31.4244 38.937 30.5007 39.2514C30.3107 39.3169 30.1207 39.3497 29.9307 39.3497Z" fill="#1B3B6F"/>
<path d="M12.1964 75.4667C10.5651 75.4667 9.18936 75.1588 8.3639 74.7854C7.47293 74.3923 7.0733 73.3441 7.47293 72.4532C7.866 71.5622 8.9142 71.1626 9.80517 71.5622C10.6961 71.9553 13.3625 72.2566 15.7996 71.2019C18.0008 70.2388 19.5862 68.4045 20.4968 65.7381C20.8178 64.8144 21.8202 64.3231 22.7439 64.6375C23.6676 64.952 24.159 65.9609 23.8445 66.8846C22.6063 70.4747 20.3134 73.0886 17.2081 74.4448C15.4786 75.1916 13.7228 75.4667 12.1964 75.4667Z" fill="#1B3B6F"/>
<path d="M20.51 95.0877C20.3004 95.0877 20.0842 95.0484 19.8745 94.9698C18.9639 94.616 18.5119 93.5875 18.8656 92.6768C20.1628 89.3423 22.5212 86.5645 25.5152 84.8612C28.5418 83.1317 31.8699 82.6927 34.8834 83.6165C35.8137 83.9047 36.3378 84.894 36.0496 85.8242C35.7679 86.7611 34.7786 87.2852 33.8418 86.9969C29.4197 85.6408 24.1787 88.7592 22.1609 93.9609C21.8858 94.6619 21.2175 95.0877 20.51 95.0877Z" fill="#1B3B6F"/>
<path d="M34.8899 54.601C32.1581 54.601 29.3672 53.6052 27.1529 51.7971C24.8076 49.8776 23.3991 47.2505 23.2877 44.5776C23.2484 43.608 24.0083 42.7826 24.9845 42.7433C25.9606 42.704 26.7795 43.4639 26.8254 44.4335C26.8909 46.0975 27.8277 47.7812 29.3869 49.0587C31.2999 50.6244 33.7893 51.3385 36.0495 50.9782C38.6635 50.5524 41.8932 48.5673 42.378 44.3483C42.4894 43.3787 43.3607 42.6843 44.3303 42.7957C45.2999 42.907 46.0009 43.7849 45.8895 44.7545C45.5881 47.3488 44.4875 49.6548 42.6925 51.4171C41.0678 53.0091 38.9059 54.0966 36.6064 54.4635C36.043 54.5552 35.4665 54.601 34.8899 54.601Z" fill="#1B3B6F"/>
<path d="M41.4544 93.7447C40.4651 93.7447 39.4628 93.6071 38.467 93.3319C37.5236 93.0765 36.9733 92.1003 37.2288 91.1635C37.4908 90.2201 38.4604 89.6632 39.4038 89.9253C43.3608 91.0063 46.3088 88.8247 47.6256 86.63C48.7655 84.7367 49.021 82.2407 48.307 79.9543C47.7239 78.0937 46.5512 76.6525 45.0837 75.9908C44.1928 75.5912 43.7997 74.543 44.1993 73.652C44.599 72.7676 45.6406 72.3679 46.5316 72.7676C48.9162 73.842 50.7899 76.076 51.6809 78.8995C52.6897 82.1293 52.3098 85.6997 50.6589 88.4513C49.4862 90.397 47.7173 91.9627 45.6734 92.8603C44.3369 93.4499 42.9087 93.7447 41.4544 93.7447Z" fill="#1B3B6F"/>
<path d="M57.4131 40.66C57.4 40.66 57.3869 40.66 57.3803 40.66C56.4042 40.6403 55.6246 39.8345 55.6443 38.8584C55.7229 34.7442 53.2596 32.5364 50.9339 31.842C48.5886 31.1475 45.2933 31.6651 43.0724 35.2224C42.5549 36.0479 41.4673 36.2968 40.6353 35.7793C39.8099 35.2617 39.5609 34.1742 40.0785 33.3422C42.771 29.0315 47.429 27.112 51.9362 28.455C56.4304 29.7914 59.2736 33.8991 59.1819 38.9304C59.1623 39.8935 58.3761 40.66 57.4131 40.66Z" fill="#1B3B6F"/>
<path d="M57.4131 72.9052C56.5549 72.9052 55.8015 72.2828 55.6705 71.4115C54.8385 66.0853 51.0584 63.7858 47.8024 63.4124C44.5792 63.039 40.0523 64.4671 37.9231 69.7212C37.5563 70.6253 36.5212 71.0643 35.6171 70.6974C34.713 70.3305 34.2806 69.2954 34.6475 68.3913C35.8529 65.4105 37.8445 63.039 40.3929 61.5453C42.7383 60.1695 45.5095 59.5865 48.2086 59.9009C53.9278 60.5626 58.2255 64.8668 59.1623 70.8677C59.313 71.8307 58.6513 72.7348 57.6882 72.8855C57.5965 72.8986 57.5048 72.9052 57.4131 72.9052Z" fill="#1B3B6F"/>
</g>
<defs>
<clipPath id="clip0_15_2">
<rect width="120" height="120" fill="white"/>
</clipPath>
</defs>
</svg>
