<svg width="379" height="94" viewBox="0 0 379 94" fill="none" xmlns="http://www.w3.org/2000/svg">
<g clip-path="url(#clip0_2_6)">
<path d="M119.08 56.08L118.744 48.688L136.36 30.4H143.368L128.728 45.952L125.272 49.744L119.08 56.08ZM113.512 64V30.4H119.752V64H113.512ZM136.936 64L124.072 48.688L128.2 44.128L144.232 64H136.936ZM162.027 38.08C164.075 38.08 165.899 38.48 167.499 39.28C169.131 40.08 170.411 41.312 171.339 42.976C172.267 44.608 172.731 46.72 172.731 49.312V64H166.731V50.08C166.731 47.808 166.187 46.112 165.099 44.992C164.043 43.872 162.555 43.312 160.635 43.312C159.227 43.312 157.979 43.6 156.891 44.176C155.803 44.752 154.955 45.616 154.347 46.768C153.771 47.888 153.483 49.312 153.483 51.04V64H147.483V38.368H153.195V45.28L152.187 43.168C153.083 41.536 154.379 40.288 156.075 39.424C157.803 38.528 159.787 38.08 162.027 38.08ZM191.909 64.336C189.285 64.336 186.949 63.776 184.901 62.656C182.853 61.504 181.237 59.936 180.053 57.952C178.869 55.968 178.277 53.712 178.277 51.184C178.277 48.624 178.869 46.368 180.053 44.416C181.237 42.432 182.853 40.88 184.901 39.76C186.949 38.64 189.285 38.08 191.909 38.08C194.565 38.08 196.917 38.64 198.965 39.76C201.045 40.88 202.661 42.416 203.813 44.368C204.997 46.32 205.589 48.592 205.589 51.184C205.589 53.712 204.997 55.968 203.813 57.952C202.661 59.936 201.045 61.504 198.965 62.656C196.917 63.776 194.565 64.336 191.909 64.336ZM191.909 59.2C193.381 59.2 194.693 58.88 195.845 58.24C196.997 57.6 197.893 56.672 198.533 55.456C199.205 54.24 199.541 52.816 199.541 51.184C199.541 49.52 199.205 48.096 198.533 46.912C197.893 45.696 196.997 44.768 195.845 44.128C194.693 43.488 193.397 43.168 191.957 43.168C190.485 43.168 189.173 43.488 188.021 44.128C186.901 44.768 186.005 45.696 185.333 46.912C184.661 48.096 184.325 49.52 184.325 51.184C184.325 52.816 184.661 54.24 185.333 55.456C186.005 56.672 186.901 57.6 188.021 58.24C189.173 58.88 190.469 59.2 191.909 59.2ZM216.288 64L206.88 38.368H212.544L220.608 60.976H217.92L226.368 38.368H231.408L239.616 60.976H236.976L245.28 38.368H250.608L241.152 64H235.392L227.904 43.984H229.68L222.048 64H216.288ZM261.021 45.856H277.773V51.136H261.021V45.856ZM261.549 64H255.309V30.4H279.837V35.632H261.549V64ZM285.295 64V28.384H291.295V64H285.295ZM310.69 64.336C308.066 64.336 305.73 63.776 303.682 62.656C301.634 61.504 300.018 59.936 298.834 57.952C297.65 55.968 297.058 53.712 297.058 51.184C297.058 48.624 297.65 46.368 298.834 44.416C300.018 42.432 301.634 40.88 303.682 39.76C305.73 38.64 308.066 38.08 310.69 38.08C313.346 38.08 315.698 38.64 317.746 39.76C319.826 40.88 321.442 42.416 322.594 44.368C323.778 46.32 324.37 48.592 324.37 51.184C324.37 53.712 323.778 55.968 322.594 57.952C321.442 59.936 319.826 61.504 317.746 62.656C315.698 63.776 313.346 64.336 310.69 64.336ZM310.69 59.2C312.162 59.2 313.474 58.88 314.626 58.24C315.778 57.6 316.674 56.672 317.314 55.456C317.986 54.24 318.322 52.816 318.322 51.184C318.322 49.52 317.986 48.096 317.314 46.912C316.674 45.696 315.778 44.768 314.626 44.128C313.474 43.488 312.178 43.168 310.738 43.168C309.266 43.168 307.954 43.488 306.802 44.128C305.682 44.768 304.786 45.696 304.114 46.912C303.442 48.096 303.106 49.52 303.106 51.184C303.106 52.816 303.442 54.24 304.114 55.456C304.786 56.672 305.682 57.6 306.802 58.24C307.954 58.88 309.25 59.2 310.69 59.2ZM335.069 64L325.661 38.368H331.325L339.389 60.976H336.701L345.149 38.368H350.189L358.397 60.976H355.757L364.061 38.368H369.389L359.933 64H354.173L346.685 43.984H348.461L340.829 64H335.069Z" fill="#E3F2FD"/>
<rect width="87.7479" height="93.5977" rx="16" fill="#1B3B6F"/>
<path d="M59.1713 63.5501C58.6845 63.5501 58.2901 63.1558 58.2901 62.6689V57.5669C58.2901 57.3474 58.369 57.1485 58.5027 56.9943L54.2236 52.1357C54.2133 52.1357 54.203 52.1357 54.1928 52.1357H49.0907C48.6039 52.1357 48.2095 51.7414 48.2095 51.2545V46.1525C48.2095 45.6656 48.6039 45.2713 49.0907 45.2713H54.1928C54.2271 45.2713 54.2613 45.2747 54.2956 45.2781L57.9576 41.2219C57.865 41.0847 57.8101 40.9167 57.8101 40.7384V35.6364C57.8101 35.6227 57.8136 35.609 57.8136 35.5953L54.6248 31.0384C54.5322 31.0761 54.4328 31.1001 54.3265 31.1001H50.0131C49.6016 31.1001 49.2656 30.7675 49.2656 30.3527V26.0393C49.2656 25.6278 49.6016 25.2918 50.0131 25.2918H54.3265C54.3676 25.2918 54.4053 25.2952 54.4431 25.3021L57.8444 21.6744C56.7026 14.882 46.2346 15.7872 46.2346 23.1111V72.3997C47.1569 78.1738 54.4979 78.4893 56.8706 73.0444C61.5029 74.9336 67.2324 69.9619 65.686 65.1616L64.2699 63.5501H59.1713ZM49.8416 36.4867C49.8416 35.9999 50.236 35.6055 50.7228 35.6055H53.5653C54.0522 35.6055 54.4465 35.9999 54.4465 36.4867V39.3292C54.4465 39.8161 54.0522 40.2104 53.5653 40.2104H50.7228C50.236 40.2104 49.8416 39.8161 49.8416 39.3292V36.4867ZM59.4422 68.2441C59.4422 68.731 59.0479 69.1287 58.561 69.1287H57.0592C56.5758 69.1287 56.178 68.731 56.178 68.2441V66.7457C56.178 66.66 56.1917 66.5811 56.2123 66.5057L53.5996 63.5501C53.5893 63.5501 53.5756 63.5501 53.5653 63.5501H50.7228C50.236 63.5501 49.8416 63.1558 49.8416 62.6689V59.8264C49.8416 59.3395 50.236 58.9452 50.7228 58.9452H53.5653C54.0522 58.9452 54.4465 59.3395 54.4465 59.8264V62.6689C54.4465 62.7923 54.4225 62.9055 54.3779 63.0118L56.9118 65.8782C56.9598 65.8679 57.0112 65.8645 57.0592 65.8645H58.561C59.0479 65.8645 59.4422 66.2588 59.4422 66.7457V68.2441Z" fill="#E3F2FD"/>
<path d="M49.0908 71.7346H50.5891C51.076 71.7346 51.4703 71.3403 51.4703 70.8534V69.3516C51.4703 68.8647 51.076 68.4704 50.5891 68.4704H49.0908C48.6039 68.4704 48.2096 68.8647 48.2096 69.3516V70.8534C48.2096 71.3403 48.6039 71.7346 49.0908 71.7346Z" fill="#E3F2FD"/>
<path d="M70.4075 53.3152H68.9057C68.4188 53.3152 68.0245 52.9209 68.0245 52.434V50.9322C68.0245 50.4453 68.4188 50.051 68.9057 50.051H70.4075C70.8944 50.051 71.2887 50.4453 71.2887 50.9322V52.434C71.2887 52.5266 71.275 52.6123 71.2475 52.6946L72.2693 53.8706C76.5244 51.3848 75.5541 44.0781 71.107 42.7065L66.6084 46.8759C66.6118 46.8965 66.6118 46.9205 66.6118 46.9411V49.787C66.6118 50.2739 66.2175 50.6682 65.7306 50.6682H62.8882C62.4013 50.6682 62.007 50.2739 62.007 49.787V46.9411C62.007 46.4542 62.4013 46.0599 62.8882 46.0599H65.7306C65.8404 46.0599 65.9467 46.0805 66.0427 46.1182L72.2179 40.399C73.0374 37.5257 72.1013 33.154 67.2667 32.3071L64.5957 35.2695C64.6471 35.3793 64.678 35.5061 64.678 35.6364V40.7384C64.678 41.2253 64.2837 41.6196 63.7968 41.6196H58.8628L55.026 45.8713C55.0569 45.9605 55.074 46.053 55.074 46.1525V51.2545C55.074 51.3745 55.05 51.4911 55.0054 51.5974L59.48 56.6857H64.2734C64.7603 56.6857 65.1546 57.08 65.1546 57.5669V62.6689C65.1546 62.8026 65.1237 62.9295 65.0723 63.0426L66.7353 64.9319C70.7607 64.925 74.7655 59.7716 72.4339 55.4959L70.5344 53.3049C70.4932 53.3118 70.4486 53.3152 70.4075 53.3152Z" fill="#E3F2FD"/>
<path d="M55.074 26.0393V30.0441L58.4068 34.8032C58.4959 34.7724 58.5919 34.7552 58.6914 34.7552H63.7934L67.2016 30.9801C68.5079 25.9878 63.1488 20.9818 57.9679 22.9191L55.0706 26.0084C55.074 26.0187 55.074 26.029 55.074 26.0393ZM59.9223 27.932C59.9223 27.4451 60.3166 27.0508 60.8035 27.0508H62.3053C62.7887 27.0508 63.1865 27.4451 63.1865 27.932V29.4338C63.1865 29.9207 62.7887 30.315 62.3053 30.315H60.8035C60.3166 30.315 59.9223 29.9207 59.9223 29.4338V27.932Z" fill="#E3F2FD"/>
<mask id="mask0_2_6" style="mask-type:luminance" maskUnits="userSpaceOnUse" x="12" y="15" width="32" height="64">
<path d="M12.4714 15.5301H43.8104V78.7293H12.4714V15.5301Z" fill="white"/>
</mask>
<g mask="url(#mask0_2_6)">
<path d="M37.2066 77.8618C35.0534 77.8618 32.5847 76.7577 31.1343 74.1724C28.6827 74.8033 25.9225 73.977 23.8858 71.9437C22.1509 70.2122 21.3657 67.9801 21.6811 65.8577C20.7348 65.8474 19.7679 65.6005 18.825 65.117C17.5186 64.445 16.3597 63.3547 15.5608 62.0483C14.7687 60.7522 14.3813 59.3258 14.4327 57.9303C14.4807 56.7303 14.8579 55.5782 15.5368 54.5461C14.6282 53.9667 13.8944 53.1678 13.3766 52.1871C12.7492 50.9939 12.4715 49.5915 12.5709 48.1377C12.756 45.5284 14.1036 43.3237 16.0682 42.2574C15.1288 40.7762 14.7927 38.5303 15.3173 36.4868C15.9688 33.9323 17.8203 32.1699 20.4708 31.5185C19.7096 29.0532 20.3302 26.3753 22.2057 24.2975C24.1704 22.1236 27.0026 21.1773 29.6908 21.7225C29.9102 20.1486 30.5822 18.8183 31.6589 17.8274C32.8418 16.737 34.4465 16.137 36.178 16.137C37.9473 16.137 39.6857 16.785 40.9509 17.9097C41.9624 18.8114 43.1693 20.4469 43.1693 23.1111V72.3998C43.1693 72.4512 43.1624 72.4992 43.1556 72.5472C42.6927 75.448 40.7074 77.4641 37.9747 77.8138C37.7244 77.8447 37.4672 77.8618 37.2066 77.8618ZM31.6075 72.1186C31.964 72.1186 32.3035 72.3278 32.4544 72.6741C33.5893 75.2765 35.9277 76.2091 37.7415 75.976C39.6342 75.736 40.9646 74.3747 41.3177 72.3243V23.1111C41.3177 19.7475 38.7324 17.9885 36.178 17.9885C34.9128 17.9885 33.7504 18.4137 32.9104 19.1886C31.9606 20.0629 31.4566 21.3556 31.4566 22.926C31.4566 23.2311 31.3091 23.5157 31.0588 23.6871C30.8085 23.862 30.4897 23.8997 30.2051 23.7934C27.9181 22.926 25.3156 23.6117 23.5807 25.5353C22.2915 26.9651 21.352 29.3618 22.5761 31.8168C22.7132 32.0842 22.7063 32.4031 22.5623 32.6705C22.4183 32.9346 22.1543 33.1128 21.856 33.1471C18.6398 33.514 17.498 35.417 17.1072 36.9462C16.5757 39.0309 17.2443 41.215 18.1769 41.8734C18.4718 42.0825 18.6192 42.446 18.5507 42.8026C18.4855 43.1592 18.2147 43.4438 17.8649 43.5295C15.6739 44.0678 14.5561 46.2965 14.419 48.2646C14.2887 50.1264 14.9745 52.4477 17.2923 53.3769C17.5735 53.4866 17.7826 53.7301 17.8512 54.0284C17.9198 54.3233 17.8375 54.6318 17.6318 54.8581C16.0237 56.624 15.8385 58.9521 17.1414 61.0848C18.4444 63.2244 20.7794 64.4004 22.6892 63.8861C23.0287 63.7935 23.3921 63.9033 23.6218 64.1638C23.855 64.4279 23.9201 64.8016 23.7864 65.1239C23.0458 66.9549 23.5704 69.0156 25.1922 70.6339C26.934 72.3723 29.3136 72.9792 31.2577 72.1872C31.3709 72.1392 31.4909 72.1186 31.6075 72.1186Z" fill="#E3F2FD"/>
</g>
<path d="M34.5287 27.8531C34.4773 27.8531 34.4258 27.8497 34.3744 27.8394C32.5126 27.5308 31.1788 26.7456 30.4073 25.5044C29.557 24.1397 29.4541 22.2745 30.109 20.1143C30.2565 19.6275 30.7742 19.3497 31.2611 19.4972C31.7514 19.6446 32.0291 20.1623 31.8783 20.6527C31.3845 22.2882 31.4188 23.6288 31.9777 24.5272C32.4577 25.2952 33.3664 25.7958 34.6761 26.0153C35.1802 26.0976 35.5231 26.5742 35.4373 27.0782C35.3619 27.5308 34.971 27.8531 34.5287 27.8531Z" fill="#E3F2FD"/>
<path d="M20.2616 44.565C19.0306 44.565 17.7894 44.0232 17.018 43.3135C16.6408 42.9672 16.6168 42.3808 16.9631 42.0037C17.306 41.6299 17.8923 41.6025 18.2695 41.9488C18.8215 42.4563 20.1107 42.9706 20.9885 42.5728C21.4548 42.3603 22.0034 42.566 22.216 43.0289C22.4251 43.4952 22.2228 44.0438 21.7565 44.2564C21.2834 44.4724 20.7725 44.565 20.2616 44.565Z" fill="#E3F2FD"/>
<path d="M31.604 73.9564C31.22 73.9564 30.86 73.7164 30.7297 73.3324C30.5617 72.8489 30.8188 72.3209 31.2989 72.1563C32.3515 71.7929 34.227 70.5757 34.5974 68.3229C34.6796 67.8155 35.1562 67.476 35.6603 67.5583C36.1643 67.6406 36.5072 68.1172 36.4249 68.6213C35.9757 71.3471 33.8327 73.2364 31.9058 73.905C31.8063 73.9393 31.7035 73.9564 31.604 73.9564Z" fill="#E3F2FD"/>
<path d="M27.8598 36.5313C27.4758 36.5313 27.1157 36.2879 26.9854 35.9039C26.1317 33.4009 23.2481 33.0066 21.8423 33.1506C21.3348 33.202 20.8788 32.8283 20.8274 32.3208C20.7794 31.8133 21.1497 31.3607 21.6571 31.3093C22.9875 31.1756 24.4242 31.4019 25.6037 31.9333C27.1363 32.6225 28.2164 33.7883 28.7341 35.3073C28.9021 35.7907 28.6415 36.3153 28.1581 36.4799C28.0587 36.5142 27.9592 36.5313 27.8598 36.5313Z" fill="#E3F2FD"/>
<path d="M18.5781 55.4342C17.7243 55.4342 17.0042 55.273 16.5722 55.0776C16.1059 54.8719 15.8967 54.3233 16.1059 53.8569C16.3116 53.3906 16.8602 53.1815 17.3265 53.3906C17.7929 53.5964 19.1884 53.7541 20.4639 53.202C21.6159 52.698 22.4457 51.738 22.9223 50.3424C23.0903 49.859 23.6149 49.6018 24.0984 49.7664C24.5818 49.931 24.839 50.459 24.6744 50.9425C24.0264 52.8215 22.8263 54.1895 21.2011 54.8993C20.2959 55.2902 19.377 55.4342 18.5781 55.4342Z" fill="#E3F2FD"/>
<path d="M22.9292 65.7034C22.8195 65.7034 22.7063 65.6828 22.5966 65.6417C22.12 65.4565 21.8834 64.9182 22.0686 64.4416C22.7475 62.6963 23.9819 61.2425 25.5488 60.3511C27.1329 59.4459 28.8747 59.2161 30.452 59.6996C30.9388 59.8505 31.2131 60.3682 31.0623 60.8551C30.9148 61.3454 30.3971 61.6197 29.9068 61.4688C27.5924 60.7591 24.8493 62.3912 23.7933 65.1136C23.6493 65.4805 23.2995 65.7034 22.9292 65.7034Z" fill="#E3F2FD"/>
<path d="M30.4554 44.5135C29.0256 44.5135 27.5649 43.9923 26.406 43.046C25.1785 42.0414 24.4413 40.6664 24.383 39.2675C24.3624 38.76 24.7602 38.328 25.271 38.3074C25.7819 38.2869 26.2105 38.6846 26.2345 39.1921C26.2688 40.063 26.7591 40.9442 27.5752 41.6128C28.5764 42.4323 29.8793 42.806 31.0622 42.6174C32.4303 42.3945 34.1207 41.3556 34.3744 39.1475C34.4327 38.64 34.8888 38.2766 35.3962 38.3349C35.9037 38.3932 36.2706 38.8526 36.2123 39.3601C36.0545 40.7179 35.4785 41.9248 34.539 42.8471C33.6887 43.6803 32.5572 44.2495 31.3537 44.4415C31.0588 44.4895 30.7571 44.5135 30.4554 44.5135Z" fill="#E3F2FD"/>
<path d="M33.891 65.0004C33.3733 65.0004 32.8487 64.9284 32.3275 64.7844C31.8337 64.6507 31.5457 64.1398 31.6794 63.6495C31.8166 63.1558 32.3241 62.8643 32.8178 63.0015C34.8888 63.5672 36.4317 62.4254 37.1209 61.2768C37.7175 60.2859 37.8512 58.9795 37.4775 57.7829C37.1723 56.8091 36.5586 56.0548 35.7905 55.7085C35.3242 55.4993 35.1185 54.9507 35.3277 54.4844C35.5368 54.0215 36.082 53.8124 36.5483 54.0215C37.7964 54.5838 38.777 55.753 39.2433 57.2308C39.7714 58.9212 39.5725 60.7899 38.7084 62.23C38.0947 63.2483 37.1689 64.0678 36.0991 64.5376C35.3997 64.8462 34.6522 65.0004 33.891 65.0004Z" fill="#E3F2FD"/>
<path d="M42.2435 37.2171C42.2366 37.2171 42.2297 37.2171 42.2263 37.2171C41.7154 37.2068 41.3074 36.7851 41.3177 36.2742C41.3588 34.1209 40.0696 32.9654 38.8524 32.602C37.6249 32.2385 35.9002 32.5094 34.7379 34.3712C34.467 34.8032 33.8978 34.9335 33.4624 34.6627C33.0303 34.3918 32.9 33.8226 33.1709 33.3872C34.5801 31.131 37.018 30.1264 39.377 30.8293C41.7291 31.5288 43.2172 33.6786 43.1692 36.3119C43.1589 36.8159 42.7475 37.2171 42.2435 37.2171Z" fill="#E3F2FD"/>
<path d="M42.2435 54.0935C41.7943 54.0935 41.4 53.7678 41.3314 53.3118C40.8959 50.5242 38.9175 49.3207 37.2134 49.1252C35.5265 48.9298 33.1572 49.6773 32.0428 52.4271C31.8508 52.9003 31.3091 53.13 30.8359 52.938C30.3627 52.746 30.1364 52.2043 30.3285 51.7311C30.9593 50.171 32.0017 48.9298 33.3355 48.148C34.563 47.428 36.0134 47.1228 37.426 47.2874C40.4193 47.6337 42.6686 49.8864 43.1589 53.0272C43.2378 53.5312 42.8915 54.0044 42.3875 54.0832C42.3395 54.0901 42.2915 54.0935 42.2435 54.0935Z" fill="#E3F2FD"/>
</g>
<defs>
<clipPath id="clip0_2_6">
<rect width="379" height="93.6" fill="white"/>
</clipPath>
</defs>
</svg>
