<svg width="420" height="94" viewBox="0 0 420 94" fill="none" xmlns="http://www.w3.org/2000/svg">
<path d="M132.34 55.09L131.962 46.774L151.78 26.2H159.664L143.194 43.696L139.306 47.962L132.34 55.09ZM126.076 64V26.2H133.096V64H126.076ZM152.428 64L137.956 46.774L142.6 41.644L160.636 64H152.428ZM180.655 34.84C182.959 34.84 185.011 35.29 186.811 36.19C188.647 37.09 190.087 38.476 191.131 40.348C192.175 42.184 192.697 44.56 192.697 47.476V64H185.947V48.34C185.947 45.784 185.335 43.876 184.111 42.616C182.923 41.356 181.249 40.726 179.089 40.726C177.505 40.726 176.101 41.05 174.877 41.698C173.653 42.346 172.699 43.318 172.015 44.614C171.367 45.874 171.043 47.476 171.043 49.42V64H164.293V35.164H170.719V42.94L169.585 40.564C170.593 38.728 172.051 37.324 173.959 36.352C175.903 35.344 178.135 34.84 180.655 34.84ZM214.273 64.378C211.321 64.378 208.693 63.748 206.389 62.488C204.085 61.192 202.267 59.428 200.935 57.196C199.603 54.964 198.937 52.426 198.937 49.582C198.937 46.702 199.603 44.164 200.935 41.968C202.267 39.736 204.085 37.99 206.389 36.73C208.693 35.47 211.321 34.84 214.273 34.84C217.261 34.84 219.907 35.47 222.211 36.73C224.551 37.99 226.369 39.718 227.665 41.914C228.997 44.11 229.663 46.666 229.663 49.582C229.663 52.426 228.997 54.964 227.665 57.196C226.369 59.428 224.551 61.192 222.211 62.488C219.907 63.748 217.261 64.378 214.273 64.378ZM214.273 58.6C215.929 58.6 217.405 58.24 218.701 57.52C219.997 56.8 221.005 55.756 221.725 54.388C222.481 53.02 222.859 51.418 222.859 49.582C222.859 47.71 222.481 46.108 221.725 44.776C221.005 43.408 219.997 42.364 218.701 41.644C217.405 40.924 215.947 40.564 214.327 40.564C212.671 40.564 211.195 40.924 209.899 41.644C208.639 42.364 207.631 43.408 206.875 44.776C206.119 46.108 205.741 47.71 205.741 49.582C205.741 51.418 206.119 53.02 206.875 54.388C207.631 55.756 208.639 56.8 209.899 57.52C211.195 58.24 212.653 58.6 214.273 58.6ZM241.698 64L231.114 35.164H237.486L246.558 60.598H243.534L253.038 35.164H258.708L267.942 60.598H264.972L274.314 35.164H280.308L269.67 64H263.19L254.766 41.482H256.764L248.178 64H241.698ZM292.023 43.588H310.869V49.528H292.023V43.588ZM292.617 64H285.597V26.2H313.191V32.086H292.617V64ZM319.332 64V23.932H326.082V64H319.332ZM347.902 64.378C344.95 64.378 342.322 63.748 340.018 62.488C337.714 61.192 335.896 59.428 334.564 57.196C333.232 54.964 332.566 52.426 332.566 49.582C332.566 46.702 333.232 44.164 334.564 41.968C335.896 39.736 337.714 37.99 340.018 36.73C342.322 35.47 344.95 34.84 347.902 34.84C350.89 34.84 353.536 35.47 355.84 36.73C358.18 37.99 359.998 39.718 361.294 41.914C362.626 44.11 363.292 46.666 363.292 49.582C363.292 52.426 362.626 54.964 361.294 57.196C359.998 59.428 358.18 61.192 355.84 62.488C353.536 63.748 350.89 64.378 347.902 64.378ZM347.902 58.6C349.558 58.6 351.034 58.24 352.33 57.52C353.626 56.8 354.634 55.756 355.354 54.388C356.11 53.02 356.488 51.418 356.488 49.582C356.488 47.71 356.11 46.108 355.354 44.776C354.634 43.408 353.626 42.364 352.33 41.644C351.034 40.924 349.576 40.564 347.956 40.564C346.3 40.564 344.824 40.924 343.528 41.644C342.268 42.364 341.26 43.408 340.504 44.776C339.748 46.108 339.37 47.71 339.37 49.582C339.37 51.418 339.748 53.02 340.504 54.388C341.26 55.756 342.268 56.8 343.528 57.52C344.824 58.24 346.282 58.6 347.902 58.6ZM375.327 64L364.743 35.164H371.115L380.187 60.598H377.163L386.667 35.164H392.337L401.571 60.598H398.601L407.943 35.164H413.937L403.299 64H396.819L388.395 41.482H390.393L381.807 64H375.327Z" fill="#E3F2FD"/>
<rect width="90" height="90" rx="34" fill="#1B3B6F"/>
<path d="M62.28 63.1874C61.7349 63.1874 61.2935 62.7506 61.2935 62.2113V56.5603C61.2935 56.3172 61.3818 56.097 61.5315 55.9261L56.7411 50.5447C56.7296 50.5447 56.718 50.5447 56.7065 50.5447H50.9949C50.4498 50.5447 50.0084 50.1079 50.0084 49.5687V43.9176C50.0084 43.3783 50.4498 42.9416 50.9949 42.9416H56.7065C56.7449 42.9416 56.7833 42.9454 56.8217 42.9492L60.9212 38.4565C60.8175 38.3046 60.7561 38.1185 60.7561 37.921V32.2699C60.7561 32.2547 60.7599 32.2396 60.7599 32.2244L57.1902 27.1772C57.0865 27.2189 56.9752 27.2455 56.8562 27.2455H52.0274C51.5668 27.2455 51.1906 26.8771 51.1906 26.4176V21.6401C51.1906 21.1843 51.5668 20.8121 52.0274 20.8121H56.8562C56.9023 20.8121 56.9445 20.8159 56.9867 20.8235L60.7945 16.8055C59.5163 9.2822 47.7974 10.2848 47.7974 18.3968V72.9893C48.83 79.3847 57.0481 79.7341 59.7044 73.7033C64.8901 75.7959 71.3042 70.2891 69.5731 64.9723L67.9878 63.1874H62.28ZM51.8355 33.2118C51.8355 32.6725 52.2769 32.2358 52.822 32.2358H56.0041C56.5491 32.2358 56.9906 32.6725 56.9906 33.2118V36.3601C56.9906 36.8994 56.5491 37.3361 56.0041 37.3361H52.822C52.2769 37.3361 51.8355 36.8994 51.8355 36.3601V33.2118ZM62.5832 68.3865C62.5832 68.9257 62.1418 69.3663 61.5967 69.3663H59.9155C59.3743 69.3663 58.929 68.9257 58.929 68.3865V66.7269C58.929 66.6319 58.9444 66.5446 58.9674 66.461L56.0425 63.1874C56.031 63.1874 56.0156 63.1874 56.0041 63.1874H52.822C52.2769 63.1874 51.8355 62.7506 51.8355 62.2113V59.063C51.8355 58.5237 52.2769 58.087 52.822 58.087H56.0041C56.5491 58.087 56.9906 58.5237 56.9906 59.063V62.2113C56.9906 62.3481 56.9637 62.4734 56.9138 62.5911L59.7504 65.766C59.8042 65.7546 59.8617 65.7508 59.9155 65.7508H61.5967C62.1418 65.7508 62.5832 66.1876 62.5832 66.7269V68.3865Z" fill="#E3F2FD"/>
<path d="M50.9948 72.2526H52.6722C53.2173 72.2526 53.6587 71.8159 53.6587 71.2766V69.6132C53.6587 69.0739 53.2173 68.6371 52.6722 68.6371H50.9948C50.4498 68.6371 50.0083 69.0739 50.0083 69.6132V71.2766C50.0083 71.8159 50.4498 72.2526 50.9948 72.2526Z" fill="#E3F2FD"/>
<path d="M74.8587 51.8511H73.1774C72.6323 51.8511 72.1909 51.4144 72.1909 50.8751V49.2117C72.1909 48.6724 72.6323 48.2357 73.1774 48.2357H74.8587C75.4037 48.2357 75.8451 48.6724 75.8451 49.2117V50.8751C75.8451 50.9776 75.8298 51.0726 75.7991 51.1637L76.9429 52.4664C81.7065 49.713 80.6202 41.62 75.6417 40.1009L70.6056 44.719C70.6095 44.7417 70.6095 44.7683 70.6095 44.7911V47.9432C70.6095 48.4825 70.168 48.9193 69.623 48.9193H66.4409C65.8958 48.9193 65.4544 48.4825 65.4544 47.9432V44.7911C65.4544 44.2518 65.8958 43.8151 66.4409 43.8151H69.623C69.7458 43.8151 69.8648 43.8379 69.9723 43.8797L76.8854 37.545C77.8028 34.3625 76.7549 29.5204 71.3426 28.5824L68.3524 31.8636C68.41 31.9851 68.4446 32.1256 68.4446 32.27V37.921C68.4446 38.4603 68.0031 38.897 67.4581 38.897H61.9345L57.6393 43.6062C57.6738 43.705 57.693 43.8075 57.693 43.9176V49.5687C57.693 49.7016 57.6661 49.8307 57.6162 49.9485L62.6254 55.5843H67.9916C68.5367 55.5843 68.9781 56.021 68.9781 56.5603V62.2114C68.9781 62.3595 68.9436 62.5 68.886 62.6253L70.7477 64.7179C75.254 64.7103 79.7373 59.0023 77.1272 54.2665L75.0007 51.8397C74.9546 51.8473 74.9047 51.8511 74.8587 51.8511Z" fill="#E3F2FD"/>
<path d="M57.693 21.6401V26.0758L61.424 31.3471C61.5238 31.3129 61.6313 31.2939 61.7426 31.2939H67.4543L71.2697 27.1126C72.7322 21.5831 66.7326 16.0384 60.9327 18.1841L57.6892 21.6059C57.693 21.6173 57.693 21.6287 57.693 21.6401ZM63.1206 23.7364C63.1206 23.1972 63.5621 22.7604 64.1071 22.7604H65.7884C66.3296 22.7604 66.7749 23.1972 66.7749 23.7364V25.3998C66.7749 25.9391 66.3296 26.3759 65.7884 26.3759H64.1071C63.5621 26.3759 63.1206 25.9391 63.1206 25.3998V23.7364Z" fill="#E3F2FD"/>
<mask id="mask0_222_2" style="mask-type:luminance" maskUnits="userSpaceOnUse" x="10" y="10" width="36" height="70">
<path d="M10 10H45.0836V80H10V10Z" fill="white"/>
</mask>
<g mask="url(#mask0_222_2)">
<path d="M37.6908 79.0392C35.2802 79.0392 32.5165 77.8163 30.8929 74.9528C28.1484 75.6516 25.0584 74.7363 22.7783 72.4843C20.8361 70.5664 19.9571 68.0941 20.3102 65.7433C19.2508 65.7319 18.1683 65.4584 17.1128 64.923C15.6503 64.1786 14.3529 62.9709 13.4585 61.524C12.5719 60.0884 12.1381 58.5086 12.1957 56.9629C12.2494 55.6337 12.6717 54.3576 13.4317 53.2145C12.4145 52.5727 11.593 51.6878 11.0134 50.6017C10.311 49.2801 10.0001 47.7268 10.1114 46.1165C10.3187 43.2265 11.8272 40.7845 14.0266 39.6034C12.9749 37.9628 12.5987 35.4753 13.186 33.2118C13.9153 30.3825 15.9881 28.4305 18.9552 27.7089C18.1031 24.9783 18.7979 22.0123 20.8975 19.7108C23.0969 17.3031 26.2675 16.2549 29.2769 16.8587C29.5225 15.1156 30.2749 13.642 31.4802 12.5445C32.8044 11.3368 34.6008 10.6722 36.5393 10.6722C38.5199 10.6722 40.466 11.39 41.8824 12.6356C43.0148 13.6344 44.3659 15.446 44.3659 18.3968V72.9894C44.3659 73.0463 44.3582 73.0995 44.3505 73.1527C43.8323 76.3656 41.6099 78.5986 38.5506 78.986C38.2704 79.0202 37.9825 79.0392 37.6908 79.0392ZM31.4226 72.678C31.8218 72.678 32.2018 72.9096 32.3707 73.2932C33.6412 76.1757 36.259 77.2087 38.2896 76.9504C40.4084 76.6846 41.8978 75.1769 42.2931 72.9058V18.3968C42.2931 14.6712 39.3989 12.723 36.5393 12.723C35.1229 12.723 33.8216 13.1939 32.8812 14.0522C31.8179 15.0206 31.2537 16.4524 31.2537 18.1917C31.2537 18.5297 31.0886 18.845 30.8084 19.0348C30.5282 19.2285 30.1712 19.2703 29.8526 19.1526C27.2924 18.1917 24.379 18.9513 22.4367 21.0818C20.9935 22.6655 19.9417 25.3201 21.312 28.0393C21.4656 28.3355 21.4579 28.6887 21.2967 28.9849C21.1355 29.2774 20.8399 29.4748 20.506 29.5128C16.9055 29.9192 15.6273 32.0269 15.1897 33.7207C14.5947 36.0297 15.3432 38.4489 16.3873 39.1781C16.7174 39.4097 16.8825 39.8123 16.8057 40.2073C16.7328 40.6022 16.4295 40.9174 16.038 41.0124C13.5852 41.6086 12.3339 44.0772 12.1803 46.2571C12.0345 48.3192 12.8022 50.8903 15.397 51.9195C15.7117 52.041 15.9459 52.3107 16.0226 52.6411C16.0994 52.9677 16.0073 53.3095 15.777 53.5601C13.9767 55.516 13.7695 58.0946 15.2281 60.4568C16.6867 62.8266 19.3007 64.1292 21.4387 63.5596C21.8187 63.457 22.2256 63.5786 22.4828 63.8672C22.7438 64.1596 22.8167 64.5736 22.667 64.9306C21.8379 66.9586 22.4252 69.241 24.2408 71.0335C26.1907 72.959 28.8546 73.6312 31.0311 72.7539C31.1577 72.7007 31.2921 72.678 31.4226 72.678Z" fill="#E3F2FD"/>
</g>
<path d="M34.6929 23.6491C34.6353 23.6491 34.5777 23.6453 34.5202 23.6339C32.4359 23.2921 30.9427 22.4224 30.0791 21.0476C29.1271 19.5361 29.012 17.4702 29.7451 15.0776C29.9102 14.5383 30.4898 14.2307 31.0348 14.394C31.5837 14.5573 31.8946 15.1307 31.7258 15.6738C31.173 17.4853 31.2114 18.9703 31.8371 19.9653C32.3745 20.816 33.3916 21.3704 34.8579 21.6135C35.4222 21.7046 35.806 22.2325 35.7101 22.7908C35.6256 23.2921 35.1881 23.6491 34.6929 23.6491Z" fill="#E3F2FD"/>
<path d="M18.721 42.1593C17.343 42.1593 15.9535 41.5593 15.0898 40.7731C14.6676 40.3895 14.6407 39.7401 15.0284 39.3224C15.4122 38.9084 16.0686 38.878 16.4909 39.2616C17.1088 39.8237 18.5521 40.3933 19.5348 39.9528C20.0568 39.7173 20.6709 39.9452 20.9089 40.4579C21.1431 40.9744 20.9166 41.582 20.3946 41.8175C19.8649 42.0568 19.2929 42.1593 18.721 42.1593Z" fill="#E3F2FD"/>
<path d="M31.4187 74.7135C30.9888 74.7135 30.5858 74.4477 30.4399 74.0224C30.2518 73.4869 30.5397 72.902 31.0771 72.7197C32.2555 72.3172 34.3552 70.969 34.7697 68.4739C34.8618 67.9118 35.3954 67.5358 35.9596 67.627C36.5239 67.7181 36.9077 68.246 36.8156 68.8043C36.3128 71.8235 33.9137 73.916 31.7565 74.6566C31.6452 74.6946 31.53 74.7135 31.4187 74.7135Z" fill="#E3F2FD"/>
<path d="M27.2271 33.2612C26.7972 33.2612 26.3942 32.9915 26.2483 32.5662C25.2925 29.7938 22.0644 29.3571 20.4906 29.5166C19.9225 29.5736 19.412 29.1596 19.3544 28.5976C19.3007 28.0355 19.7152 27.5342 20.2833 27.4772C21.7726 27.3291 23.381 27.5798 24.7014 28.1684C26.4172 28.9318 27.6263 30.223 28.2059 31.9054C28.394 32.4409 28.1023 33.0219 27.5611 33.2042C27.4497 33.2422 27.3384 33.2612 27.2271 33.2612Z" fill="#E3F2FD"/>
<path d="M16.8363 54.1981C15.8806 54.1981 15.0745 54.0196 14.5908 53.8032C14.0688 53.5753 13.8346 52.9677 14.0688 52.4512C14.2991 51.9347 14.9133 51.703 15.4353 51.9347C15.9573 52.1625 17.5196 52.3372 18.9475 51.7258C20.2372 51.1675 21.1661 50.1042 21.6997 48.5585C21.8878 48.023 22.475 47.7382 23.0163 47.9205C23.5575 48.1028 23.8454 48.6876 23.6611 49.2231C22.9357 51.3043 21.5922 52.8196 19.7728 53.6057C18.7594 54.0386 17.7307 54.1981 16.8363 54.1981Z" fill="#E3F2FD"/>
<path d="M21.7073 65.5724C21.5845 65.5724 21.4578 65.5496 21.335 65.504C20.8014 65.2989 20.5366 64.7027 20.7439 64.1748C21.5039 62.2418 22.8857 60.6315 24.6399 59.6441C26.4133 58.6415 28.3632 58.3871 30.1289 58.9225C30.674 59.0896 30.9811 59.6631 30.8122 60.2024C30.6471 60.7455 30.0675 61.0493 29.5186 60.8822C26.9276 60.096 23.8569 61.9038 22.6746 64.9192C22.5134 65.3255 22.1219 65.5724 21.7073 65.5724Z" fill="#E3F2FD"/>
<path d="M30.1328 42.1023C28.5322 42.1023 26.897 41.5251 25.5996 40.4769C24.2254 39.3642 23.4002 37.8413 23.3349 36.2918C23.3119 35.7297 23.7571 35.2512 24.3291 35.2284C24.901 35.2056 25.3808 35.6462 25.4077 36.2082C25.4461 37.1729 25.995 38.1489 26.9085 38.8894C28.0294 39.7971 29.488 40.211 30.8123 40.0022C32.3438 39.7553 34.2362 38.6046 34.5202 36.1589C34.5855 35.5968 35.096 35.1942 35.6641 35.2588C36.2322 35.3234 36.6429 35.8322 36.5776 36.3943C36.4011 37.8982 35.7562 39.235 34.7045 40.2566C33.7525 41.1795 32.4858 41.8099 31.1385 42.0226C30.8084 42.0757 30.4706 42.1023 30.1328 42.1023Z" fill="#E3F2FD"/>
<path d="M33.9789 64.7938C33.3993 64.7938 32.812 64.7141 32.2285 64.5546C31.6758 64.4065 31.3534 63.8406 31.5031 63.2975C31.6566 62.7506 32.2247 62.4278 32.7774 62.5797C35.0959 63.2064 36.8232 61.9417 37.5947 60.6695C38.2626 59.5719 38.4123 58.125 37.9939 56.7996C37.6523 55.721 36.9652 54.8855 36.1054 54.5019C35.5834 54.2703 35.353 53.6626 35.5872 53.1461C35.8213 52.6335 36.4317 52.4018 36.9537 52.6335C38.3509 53.2563 39.4487 54.5513 39.9707 56.1881C40.5618 58.0604 40.3392 60.1302 39.3719 61.7252C38.6848 62.8532 37.6484 63.7608 36.4508 64.2811C35.6678 64.6229 34.831 64.7938 33.9789 64.7938Z" fill="#E3F2FD"/>
<path d="M43.3294 34.0207C43.3217 34.0207 43.3141 34.0207 43.3102 34.0207C42.7383 34.0093 42.2815 33.5422 42.293 32.9764C42.3391 30.5914 40.8958 29.3115 39.5332 28.909C38.159 28.5064 36.2282 28.8064 34.927 30.8686C34.6238 31.3471 33.9866 31.4914 33.4991 31.1914C33.0154 30.8914 32.8696 30.261 33.1728 29.7787C34.7504 27.2797 37.4796 26.167 40.1204 26.9455C42.7536 27.7203 44.4195 30.1015 44.3658 33.0181C44.3543 33.5764 43.8937 34.0207 43.3294 34.0207Z" fill="#E3F2FD"/>
<path d="M43.3293 52.7132C42.8265 52.7132 42.3851 52.3524 42.3083 51.8473C41.8208 48.7598 39.606 47.4268 37.6983 47.2103C35.8098 46.9938 33.1574 47.8217 31.9099 50.8675C31.6949 51.3916 31.0885 51.6461 30.5587 51.4334C30.029 51.2207 29.7757 50.6207 29.9907 50.0966C30.6969 48.3686 31.8638 46.9938 33.357 46.1279C34.7312 45.3304 36.3548 44.9924 37.9363 45.1747C41.2873 45.5583 43.8053 48.0534 44.3542 51.5321C44.4425 52.0904 44.0548 52.6145 43.4906 52.7018C43.4368 52.7094 43.3831 52.7132 43.3293 52.7132Z" fill="#E3F2FD"/>
</svg>
