<svg width="414" height="94" viewBox="0 0 414 94" fill="none" xmlns="http://www.w3.org/2000/svg">
<g clip-path="url(#clip0_1_54)">
<path d="M132.34 55.09L131.962 46.774L151.78 26.2H159.664L143.194 43.696L139.306 47.962L132.34 55.09ZM126.076 64V26.2H133.096V64H126.076ZM152.428 64L137.956 46.774L142.6 41.644L160.636 64H152.428ZM180.655 34.84C182.959 34.84 185.011 35.29 186.811 36.19C188.647 37.09 190.087 38.476 191.131 40.348C192.175 42.184 192.697 44.56 192.697 47.476V64H185.947V48.34C185.947 45.784 185.335 43.876 184.111 42.616C182.923 41.356 181.249 40.726 179.089 40.726C177.505 40.726 176.101 41.05 174.877 41.698C173.653 42.346 172.699 43.318 172.015 44.614C171.367 45.874 171.043 47.476 171.043 49.42V64H164.293V35.164H170.719V42.94L169.585 40.564C170.593 38.728 172.051 37.324 173.959 36.352C175.903 35.344 178.135 34.84 180.655 34.84ZM214.273 64.378C211.321 64.378 208.693 63.748 206.389 62.488C204.085 61.192 202.267 59.428 200.935 57.196C199.603 54.964 198.937 52.426 198.937 49.582C198.937 46.702 199.603 44.164 200.935 41.968C202.267 39.736 204.085 37.99 206.389 36.73C208.693 35.47 211.321 34.84 214.273 34.84C217.261 34.84 219.907 35.47 222.211 36.73C224.551 37.99 226.369 39.718 227.665 41.914C228.997 44.11 229.663 46.666 229.663 49.582C229.663 52.426 228.997 54.964 227.665 57.196C226.369 59.428 224.551 61.192 222.211 62.488C219.907 63.748 217.261 64.378 214.273 64.378ZM214.273 58.6C215.929 58.6 217.405 58.24 218.701 57.52C219.997 56.8 221.005 55.756 221.725 54.388C222.481 53.02 222.859 51.418 222.859 49.582C222.859 47.71 222.481 46.108 221.725 44.776C221.005 43.408 219.997 42.364 218.701 41.644C217.405 40.924 215.947 40.564 214.327 40.564C212.671 40.564 211.195 40.924 209.899 41.644C208.639 42.364 207.631 43.408 206.875 44.776C206.119 46.108 205.741 47.71 205.741 49.582C205.741 51.418 206.119 53.02 206.875 54.388C207.631 55.756 208.639 56.8 209.899 57.52C211.195 58.24 212.653 58.6 214.273 58.6ZM241.698 64L231.114 35.164H237.486L246.558 60.598H243.534L253.038 35.164H258.708L267.942 60.598H264.972L274.314 35.164H280.308L269.67 64H263.19L254.766 41.482H256.764L248.178 64H241.698ZM292.023 43.588H310.869V49.528H292.023V43.588ZM292.617 64H285.597V26.2H313.191V32.086H292.617V64ZM319.332 64V23.932H326.082V64H319.332ZM347.902 64.378C344.95 64.378 342.322 63.748 340.018 62.488C337.714 61.192 335.896 59.428 334.564 57.196C333.232 54.964 332.566 52.426 332.566 49.582C332.566 46.702 333.232 44.164 334.564 41.968C335.896 39.736 337.714 37.99 340.018 36.73C342.322 35.47 344.95 34.84 347.902 34.84C350.89 34.84 353.536 35.47 355.84 36.73C358.18 37.99 359.998 39.718 361.294 41.914C362.626 44.11 363.292 46.666 363.292 49.582C363.292 52.426 362.626 54.964 361.294 57.196C359.998 59.428 358.18 61.192 355.84 62.488C353.536 63.748 350.89 64.378 347.902 64.378ZM347.902 58.6C349.558 58.6 351.034 58.24 352.33 57.52C353.626 56.8 354.634 55.756 355.354 54.388C356.11 53.02 356.488 51.418 356.488 49.582C356.488 47.71 356.11 46.108 355.354 44.776C354.634 43.408 353.626 42.364 352.33 41.644C351.034 40.924 349.576 40.564 347.956 40.564C346.3 40.564 344.824 40.924 343.528 41.644C342.268 42.364 341.26 43.408 340.504 44.776C339.748 46.108 339.37 47.71 339.37 49.582C339.37 51.418 339.748 53.02 340.504 54.388C341.26 55.756 342.268 56.8 343.528 57.52C344.824 58.24 346.282 58.6 347.902 58.6ZM375.327 64L364.743 35.164H371.115L380.187 60.598H377.163L386.667 35.164H392.337L401.571 60.598H398.601L407.943 35.164H413.937L403.299 64H396.819L388.395 41.482H390.393L381.807 64H375.327Z" fill="#1B3B6F"/>
<rect width="90" height="90" rx="34" fill="#E3F2FD"/>
<path d="M62.0212 65.1874C61.4761 65.1874 61.0347 64.7506 61.0347 64.2113V58.5603C61.0347 58.3172 61.123 58.097 61.2727 57.9261L56.4823 52.5447C56.4708 52.5447 56.4592 52.5447 56.4477 52.5447H50.7361C50.191 52.5447 49.7496 52.1079 49.7496 51.5687V45.9176C49.7496 45.3783 50.191 44.9416 50.7361 44.9416H56.4477C56.4861 44.9416 56.5245 44.9454 56.5629 44.9492L60.6624 40.4565C60.5587 40.3046 60.4973 40.1185 60.4973 39.921V34.2699C60.4973 34.2547 60.5012 34.2396 60.5012 34.2244L56.9314 29.1772C56.8277 29.2189 56.7164 29.2455 56.5974 29.2455H51.7686C51.308 29.2455 50.9318 28.8771 50.9318 28.4176V23.6401C50.9318 23.1843 51.308 22.8121 51.7686 22.8121H56.5974C56.6435 22.8121 56.6857 22.8159 56.7279 22.8235L60.5357 18.8055C59.2575 11.2822 47.5386 12.2848 47.5386 20.3968V74.9893C48.5712 81.3847 56.7894 81.7341 59.4456 75.7033C64.6314 77.7959 71.0454 72.2891 69.3143 66.9723L67.729 65.1874H62.0212ZM51.5767 35.2118C51.5767 34.6725 52.0181 34.2358 52.5632 34.2358H55.7453C56.2904 34.2358 56.7318 34.6725 56.7318 35.2118V38.3601C56.7318 38.8994 56.2904 39.3361 55.7453 39.3361H52.5632C52.0181 39.3361 51.5767 38.8994 51.5767 38.3601V35.2118ZM62.3244 70.3865C62.3244 70.9257 61.883 71.3663 61.3379 71.3663H59.6567C59.1155 71.3663 58.6702 70.9257 58.6702 70.3865V68.7269C58.6702 68.6319 58.6856 68.5446 58.7086 68.461L55.7837 65.1874C55.7722 65.1874 55.7568 65.1874 55.7453 65.1874H52.5632C52.0181 65.1874 51.5767 64.7506 51.5767 64.2113V61.063C51.5767 60.5237 52.0181 60.087 52.5632 60.087H55.7453C56.2904 60.087 56.7318 60.5237 56.7318 61.063V64.2113C56.7318 64.3481 56.7049 64.4734 56.655 64.5911L59.4916 67.766C59.5454 67.7546 59.603 67.7508 59.6567 67.7508H61.3379C61.883 67.7508 62.3244 68.1876 62.3244 68.7269V70.3865Z" fill="#1B3B6F"/>
<path d="M50.7361 74.2526H52.4135C52.9586 74.2526 53.4 73.8159 53.4 73.2766V71.6132C53.4 71.0739 52.9586 70.6371 52.4135 70.6371H50.7361C50.1911 70.6371 49.7496 71.0739 49.7496 71.6132V73.2766C49.7496 73.8159 50.1911 74.2526 50.7361 74.2526Z" fill="#1B3B6F"/>
<path d="M74.5998 53.8511H72.9186C72.3735 53.8511 71.9321 53.4144 71.9321 52.8751V51.2117C71.9321 50.6724 72.3735 50.2357 72.9186 50.2357H74.5998C75.1449 50.2357 75.5863 50.6724 75.5863 51.2117V52.8751C75.5863 52.9776 75.571 53.0726 75.5403 53.1637L76.6841 54.4664C81.4477 51.713 80.3614 43.62 75.3829 42.1009L70.3468 46.719C70.3507 46.7417 70.3507 46.7683 70.3507 46.7911V49.9432C70.3507 50.4825 69.9092 50.9193 69.3642 50.9193H66.1821C65.637 50.9193 65.1956 50.4825 65.1956 49.9432V46.7911C65.1956 46.2518 65.637 45.8151 66.1821 45.8151H69.3642C69.487 45.8151 69.606 45.8379 69.7135 45.8797L76.6266 39.545C77.544 36.3625 76.4961 31.5204 71.0838 30.5824L68.0936 33.8636C68.1512 33.9851 68.1858 34.1256 68.1858 34.27V39.921C68.1858 40.4603 67.7443 40.897 67.1993 40.897H61.6757L57.3805 45.6062C57.415 45.705 57.4342 45.8075 57.4342 45.9176V51.5687C57.4342 51.7016 57.4073 51.8307 57.3574 51.9485L62.3666 57.5843H67.7328C68.2779 57.5843 68.7193 58.021 68.7193 58.5603V64.2114C68.7193 64.3595 68.6848 64.5 68.6272 64.6253L70.4888 66.7179C74.9952 66.7103 79.4786 61.0023 76.8684 56.2665L74.7419 53.8397C74.6958 53.8473 74.6459 53.8511 74.5998 53.8511Z" fill="#1B3B6F"/>
<path d="M57.4343 23.6401V28.0758L61.1653 33.3471C61.2651 33.3129 61.3726 33.2939 61.4839 33.2939H67.1956L71.011 29.1126C72.4735 23.5831 66.4739 18.0384 60.674 20.1841L57.4305 23.6059C57.4343 23.6173 57.4343 23.6287 57.4343 23.6401ZM62.8619 25.7364C62.8619 25.1972 63.3033 24.7604 63.8484 24.7604H65.5297C66.0709 24.7604 66.5161 25.1972 66.5161 25.7364V27.3998C66.5161 27.9391 66.0709 28.3759 65.5297 28.3759H63.8484C63.3033 28.3759 62.8619 27.9391 62.8619 27.3998V25.7364Z" fill="#1B3B6F"/>
<mask id="mask0_1_54" style="mask-type:luminance" maskUnits="userSpaceOnUse" x="9" y="12" width="36" height="70">
<path d="M9.74121 12H44.8249V82H9.74121V12Z" fill="white"/>
</mask>
<g mask="url(#mask0_1_54)">
<path d="M37.4321 81.0392C35.0215 81.0392 32.2578 79.8163 30.6341 76.9528C27.8896 77.6516 24.7997 76.7363 22.5196 74.4843C20.5773 72.5664 19.6983 70.0941 20.0515 67.7433C18.9921 67.7319 17.9096 67.4584 16.854 66.923C15.3916 66.1786 14.0942 64.9709 13.1998 63.524C12.3131 62.0884 11.8794 60.5086 11.9369 58.9629C11.9907 57.6337 12.4129 56.3576 13.1729 55.2145C12.1557 54.5727 11.3343 53.6878 10.7547 52.6017C10.0522 51.2801 9.74133 49.7268 9.85265 48.1165C10.0599 45.2265 11.5684 42.7845 13.7679 41.6034C12.7161 39.9628 12.34 37.4753 12.9273 35.2118C13.6566 32.3825 15.7294 30.4305 18.6965 29.7089C17.8443 26.9783 18.5391 24.0123 20.6388 21.7108C22.8382 19.3031 26.0088 18.2549 29.0181 18.8587C29.2638 17.1156 30.0161 15.642 31.2214 14.5445C32.5457 13.3368 34.3421 12.6722 36.2805 12.6722C38.2612 12.6722 40.2073 13.39 41.6237 14.6356C42.756 15.6344 44.1072 17.446 44.1072 20.3968V74.9894C44.1072 75.0463 44.0995 75.0995 44.0918 75.1527C43.5736 78.3656 41.3512 80.5986 38.2919 80.986C38.0117 81.0202 37.7238 81.0392 37.4321 81.0392ZM31.1639 74.678C31.5631 74.678 31.9431 74.9096 32.112 75.2932C33.3825 78.1757 36.0003 79.2087 38.0309 78.9504C40.1497 78.6846 41.639 77.1769 42.0344 74.9058V20.3968C42.0344 16.6712 39.1402 14.723 36.2805 14.723C34.8641 14.723 33.5629 15.1939 32.6225 16.0522C31.5592 17.0206 30.995 18.4524 30.995 20.1917C30.995 20.5297 30.8299 20.845 30.5497 21.0348C30.2695 21.2285 29.9125 21.2703 29.5939 21.1526C27.0337 20.1917 24.1203 20.9513 22.178 23.0818C20.7347 24.6655 19.683 27.3201 21.0533 30.0393C21.2069 30.3355 21.1992 30.6887 21.038 30.9849C20.8767 31.2774 20.5812 31.4748 20.2472 31.5128C16.6467 31.9192 15.3685 34.0269 14.9309 35.7207C14.336 38.0297 15.0845 40.4489 16.1286 41.1781C16.4587 41.4097 16.6237 41.8123 16.5469 42.2073C16.474 42.6022 16.1708 42.9174 15.7793 43.0124C13.3265 43.6086 12.0751 46.0772 11.9216 48.2571C11.7757 50.3192 12.5434 52.8903 15.1382 53.9195C15.453 54.041 15.6871 54.3107 15.7639 54.6411C15.8407 54.9677 15.7485 55.3095 15.5182 55.5601C13.718 57.516 13.5107 60.0946 14.9693 62.4568C16.428 64.8266 19.042 66.1292 21.18 65.5596C21.56 65.457 21.9669 65.5786 22.224 65.8672C22.4851 66.1596 22.558 66.5736 22.4083 66.9306C21.5792 68.9586 22.1665 71.241 23.9821 73.0335C25.932 74.959 28.5959 75.6312 30.7723 74.7539C30.899 74.7007 31.0333 74.678 31.1639 74.678Z" fill="#1B3B6F"/>
</g>
<path d="M34.4341 25.6491C34.3766 25.6491 34.319 25.6453 34.2614 25.6339C32.1771 25.2921 30.6839 24.4224 29.8203 23.0476C28.8684 21.5361 28.7532 19.4702 29.4863 17.0776C29.6514 16.5383 30.231 16.2307 30.7761 16.394C31.325 16.5573 31.6359 17.1307 31.467 17.6738C30.9143 19.4853 30.9526 20.9703 31.5783 21.9653C32.1157 22.816 33.1329 23.3704 34.5992 23.6135C35.1634 23.7046 35.5473 24.2325 35.4513 24.7908C35.3669 25.2921 34.9293 25.6491 34.4341 25.6491Z" fill="#1B3B6F"/>
<path d="M18.4622 44.1593C17.0842 44.1593 15.6947 43.5593 14.831 42.7731C14.4088 42.3895 14.3819 41.7401 14.7696 41.3224C15.1534 40.9084 15.8098 40.878 16.232 41.2616C16.85 41.8237 18.2933 42.3933 19.2759 41.9528C19.798 41.7173 20.4121 41.9452 20.6501 42.4579C20.8843 42.9744 20.6578 43.582 20.1358 43.8175C19.6061 44.0568 19.0341 44.1593 18.4622 44.1593Z" fill="#1B3B6F"/>
<path d="M31.16 76.7135C30.7301 76.7135 30.327 76.4477 30.1812 76.0224C29.9931 75.4869 30.281 74.902 30.8183 74.7197C31.9968 74.3172 34.0964 72.969 34.511 70.4739C34.6031 69.9118 35.1366 69.5358 35.7009 69.627C36.2651 69.7181 36.649 70.246 36.5569 70.8043C36.054 73.8235 33.655 75.916 31.4978 76.6566C31.3864 76.6946 31.2713 76.7135 31.16 76.7135Z" fill="#1B3B6F"/>
<path d="M26.9684 35.2612C26.5385 35.2612 26.1355 34.9915 25.9896 34.5662C25.0338 31.7938 21.8057 31.3571 20.2319 31.5166C19.6638 31.5736 19.1533 31.1596 19.0957 30.5976C19.042 30.0355 19.4565 29.5342 20.0246 29.4772C21.5139 29.3291 23.1222 29.5798 24.4427 30.1684C26.1585 30.9318 27.3676 32.223 27.9472 33.9054C28.1353 34.4409 27.8436 35.0219 27.3023 35.2042C27.191 35.2422 27.0797 35.2612 26.9684 35.2612Z" fill="#1B3B6F"/>
<path d="M16.5776 56.1981C15.6218 56.1981 14.8158 56.0196 14.3321 55.8032C13.8101 55.5753 13.5759 54.9677 13.8101 54.4512C14.0404 53.9347 14.6546 53.703 15.1766 53.9347C15.6986 54.1625 17.2609 54.3372 18.6888 53.7258C19.9785 53.1675 20.9074 52.1042 21.441 50.5585C21.6291 50.023 22.2163 49.7382 22.7576 49.9205C23.2988 50.1028 23.5867 50.6876 23.4024 51.2231C22.677 53.3043 21.3335 54.8196 19.5141 55.6057C18.5007 56.0386 17.472 56.1981 16.5776 56.1981Z" fill="#1B3B6F"/>
<path d="M21.4485 67.5724C21.3257 67.5724 21.199 67.5496 21.0762 67.504C20.5426 67.2989 20.2778 66.7027 20.4851 66.1748C21.2451 64.2418 22.6269 62.6315 24.3811 61.6441C26.1545 60.6415 28.1044 60.3871 29.8701 60.9225C30.4152 61.0896 30.7223 61.6631 30.5534 62.2024C30.3883 62.7455 29.8087 63.0493 29.2598 62.8822C26.6688 62.096 23.5981 63.9038 22.4158 66.9192C22.2546 67.3255 21.8631 67.5724 21.4485 67.5724Z" fill="#1B3B6F"/>
<path d="M29.874 44.1023C28.2734 44.1023 26.6382 43.5251 25.3408 42.4769C23.9666 41.3642 23.1414 39.8413 23.0761 38.2918C23.0531 37.7297 23.4983 37.2512 24.0703 37.2284C24.6422 37.2056 25.122 37.6462 25.1489 38.2082C25.1873 39.1729 25.7362 40.1489 26.6497 40.8894C27.7706 41.7971 29.2292 42.211 30.5535 42.0022C32.085 41.7553 33.9774 40.6046 34.2614 38.1589C34.3267 37.5968 34.8372 37.1942 35.4053 37.2588C35.9734 37.3234 36.3841 37.8322 36.3188 38.3943C36.1423 39.8982 35.4974 41.235 34.4457 42.2566C33.4937 43.1795 32.227 43.8099 30.8797 44.0226C30.5496 44.0757 30.2118 44.1023 29.874 44.1023Z" fill="#1B3B6F"/>
<path d="M33.7201 66.7938C33.1405 66.7938 32.5532 66.7141 31.9698 66.5546C31.4171 66.4065 31.0946 65.8406 31.2443 65.2975C31.3979 64.7506 31.966 64.4278 32.5187 64.5797C34.8371 65.2064 36.5645 63.9417 37.336 62.6695C38.0039 61.5719 38.1536 60.125 37.7352 58.7996C37.3936 57.721 36.7065 56.8855 35.8467 56.5019C35.3246 56.2703 35.0943 55.6626 35.3285 55.1461C35.5626 54.6335 36.1729 54.4018 36.695 54.6335C38.0922 55.2563 39.19 56.5513 39.712 58.1881C40.3031 60.0604 40.0805 62.1302 39.1132 63.7252C38.4261 64.8532 37.3897 65.7608 36.1921 66.2811C35.4091 66.6229 34.5723 66.7938 33.7201 66.7938Z" fill="#1B3B6F"/>
<path d="M43.0706 36.0207C43.0629 36.0207 43.0553 36.0207 43.0514 36.0207C42.4795 36.0093 42.0227 35.5422 42.0342 34.9764C42.0803 32.5914 40.637 31.3115 39.2744 30.909C37.9002 30.5064 35.9694 30.8064 34.6682 32.8686C34.3649 33.3471 33.7278 33.4914 33.2403 33.1914C32.7566 32.8914 32.6108 32.261 32.914 31.7787C34.4916 29.2797 37.2208 28.167 39.8616 28.9455C42.4948 29.7203 44.1607 32.1015 44.107 35.0181C44.0955 35.5764 43.6349 36.0207 43.0706 36.0207Z" fill="#1B3B6F"/>
<path d="M43.0706 54.7132C42.5678 54.7132 42.1263 54.3524 42.0496 53.8473C41.5621 50.7598 39.3473 49.4268 37.4396 49.2103C35.551 48.9938 32.8986 49.8217 31.6511 52.8675C31.4362 53.3916 30.8297 53.6461 30.3 53.4334C29.7703 53.2207 29.5169 52.6207 29.7319 52.0966C30.4382 50.3686 31.6051 48.9938 33.0982 48.1279C34.4724 47.3304 36.0961 46.9924 37.6775 47.1747C41.0285 47.5583 43.5466 50.0534 44.0955 53.5321C44.1838 54.0904 43.7961 54.6145 43.2318 54.7018C43.1781 54.7094 43.1243 54.7132 43.0706 54.7132Z" fill="#1B3B6F"/>
</g>
<defs>
<clipPath id="clip0_1_54">
<rect width="414" height="94" fill="white"/>
</clipPath>
</defs>
</svg>
