<svg width="90" height="90" viewBox="0 0 90 90" fill="none" xmlns="http://www.w3.org/2000/svg">
<g clip-path="url(#clip0_108_56)">
<rect width="90" height="90" rx="34" fill="#E3F2FD"/>
<path d="M62.5115 63.4229C61.964 63.4229 61.5206 62.9842 61.5206 62.4426V56.7665C61.5206 56.5224 61.6093 56.3011 61.7596 56.1295L56.948 50.7242C56.9365 50.7242 56.9249 50.7242 56.9133 50.7242H51.1764C50.6289 50.7242 50.1855 50.2856 50.1855 49.7439V44.0678C50.1855 43.5262 50.6289 43.0875 51.1764 43.0875H56.9133C56.9519 43.0875 56.9904 43.0913 57.029 43.0951L61.1466 38.5825C61.0425 38.4299 60.9808 38.243 60.9808 38.0446V32.3686C60.9808 32.3533 60.9847 32.3381 60.9847 32.3228L57.3991 27.2532C57.295 27.2952 57.1832 27.3219 57.0637 27.3219H52.2135C51.7509 27.3219 51.373 26.9519 51.373 26.4903V21.6916C51.373 21.2339 51.7509 20.86 52.2135 20.86H57.0637C57.1099 20.86 57.1524 20.8639 57.1948 20.8715L61.0194 16.8357C59.7355 9.27903 47.9648 10.2861 47.9648 18.434V73.2683C49.0019 79.692 57.2565 80.043 59.9244 73.9854C65.1332 76.0873 71.5757 70.5561 69.8368 65.2158L68.2445 63.4229H62.5115ZM52.0207 33.3146C52.0207 32.7729 52.4641 32.3342 53.0116 32.3342H56.2078C56.7552 32.3342 57.1986 32.7729 57.1986 33.3146V36.4769C57.1986 37.0185 56.7552 37.4572 56.2078 37.4572H53.0116C52.4641 37.4572 52.0207 37.0185 52.0207 36.4769V33.3146ZM62.816 68.6451C62.816 69.1867 62.3727 69.6292 61.8252 69.6292H60.1365C59.5929 69.6292 59.1456 69.1867 59.1456 68.6451V66.9781C59.1456 66.8827 59.1611 66.795 59.1842 66.7111L56.2463 63.4229C56.2348 63.4229 56.2193 63.4229 56.2078 63.4229H53.0116C52.4641 63.4229 52.0207 62.9842 52.0207 62.4426V59.2803C52.0207 58.7386 52.4641 58.3 53.0116 58.3H56.2078C56.7552 58.3 57.1986 58.7386 57.1986 59.2803V62.4426C57.1986 62.5799 57.1716 62.7058 57.1215 62.824L59.9707 66.013C60.0247 66.0016 60.0825 65.9977 60.1365 65.9977H61.8252C62.3727 65.9977 62.816 66.4364 62.816 66.9781V68.6451Z" fill="#1B3B6F"/>
<path d="M51.1765 72.5283H52.8613C53.4088 72.5283 53.8522 72.0896 53.8522 71.5479V69.8772C53.8522 69.3355 53.4088 68.8968 52.8613 68.8968H51.1765C50.629 68.8968 50.1856 69.3355 50.1856 69.8772V71.5479C50.1856 72.0896 50.629 72.5283 51.1765 72.5283Z" fill="#1B3B6F"/>
<path d="M75.146 52.0364H73.4573C72.9098 52.0364 72.4664 51.5978 72.4664 51.0561V49.3853C72.4664 48.8437 72.9098 48.405 73.4573 48.405H75.146C75.6934 48.405 76.1368 48.8437 76.1368 49.3853V51.0561C76.1368 51.1591 76.1214 51.2545 76.0906 51.346L77.2395 52.6544C82.0241 49.8888 80.933 41.76 75.9325 40.2342L70.8741 44.8727C70.878 44.8956 70.878 44.9223 70.878 44.9452V48.1113C70.878 48.6529 70.4346 49.0916 69.8871 49.0916H66.6909C66.1435 49.0916 65.7001 48.6529 65.7001 48.1113V44.9452C65.7001 44.4035 66.1435 43.9648 66.6909 43.9648H69.8871C70.0105 43.9648 70.13 43.9877 70.238 44.0297L77.1817 37.667C78.1031 34.4704 77.0506 29.6068 71.6144 28.6646L68.611 31.9604C68.6688 32.0825 68.7035 32.2236 68.7035 32.3686V38.0446C68.7035 38.5863 68.2601 39.025 67.7126 39.025H62.1646L57.8503 43.755C57.885 43.8542 57.9043 43.9572 57.9043 44.0678V49.7439C57.9043 49.8774 57.8773 50.0071 57.8272 50.1254L62.8586 55.7862H68.2485C68.796 55.7862 69.2394 56.2248 69.2394 56.7665V62.4426C69.2394 62.5913 69.2047 62.7325 69.1469 62.8584L71.0168 64.9602C75.5431 64.9526 80.0463 59.2193 77.4245 54.4625L75.2886 52.025C75.2424 52.0326 75.1922 52.0364 75.146 52.0364Z" fill="#1B3B6F"/>
<path d="M57.9042 21.6916V26.147L61.6518 31.4417C61.752 31.4073 61.86 31.3882 61.9718 31.3882H67.7087L71.541 27.1884C73.01 21.6344 66.9839 16.0652 61.1583 18.2204L57.9004 21.6573C57.9042 21.6687 57.9042 21.6802 57.9042 21.6916ZM63.3559 23.7973C63.3559 23.2556 63.7993 22.8169 64.3467 22.8169H66.0354C66.5791 22.8169 67.0263 23.2556 67.0263 23.7973V25.468C67.0263 26.0097 66.5791 26.4484 66.0354 26.4484H64.3467C63.7993 26.4484 63.3559 26.0097 63.3559 25.468V23.7973Z" fill="#1B3B6F"/>
<mask id="mask0_108_56" style="mask-type:luminance" maskUnits="userSpaceOnUse" x="10" y="10" width="36" height="71">
<path d="M10 10H45.239V80.31H10V10Z" fill="white"/>
</mask>
<g mask="url(#mask0_108_56)">
<path d="M37.8134 79.3449C35.3922 79.3449 32.6163 78.1166 30.9854 75.2404C28.2287 75.9423 25.1251 75.023 22.8349 72.761C20.8841 70.8346 20.0012 68.3513 20.3559 65.9901C19.2918 65.9787 18.2045 65.704 17.1443 65.1662C15.6753 64.4185 14.3722 63.2055 13.4739 61.7521C12.5833 60.3102 12.1476 58.7234 12.2054 57.1709C12.2594 55.8358 12.6835 54.5541 13.4469 53.4059C12.4252 52.7612 11.6001 51.8724 11.0179 50.7815C10.3124 49.454 10.0001 47.8938 10.1119 46.2765C10.3201 43.3736 11.8353 40.9208 14.0445 39.7345C12.9881 38.0866 12.6102 35.5881 13.2001 33.3146C13.9327 30.4727 16.0146 28.5121 18.9949 27.7873C18.139 25.0446 18.8368 22.0655 20.9458 19.7538C23.1549 17.3354 26.3396 16.2826 29.3622 16.8891C29.609 15.1382 30.3647 13.6582 31.5753 12.5558C32.9054 11.3427 34.7098 10.6752 36.6568 10.6752C38.6462 10.6752 40.6009 11.3961 42.0236 12.6473C43.161 13.6505 44.5181 15.4701 44.5181 18.434V73.2683C44.5181 73.3255 44.5104 73.3789 44.5027 73.4323C43.9822 76.6595 41.7499 78.9024 38.6771 79.2915C38.3956 79.3258 38.1064 79.3449 37.8134 79.3449ZM31.5175 72.9555C31.9184 72.9555 32.3001 73.1882 32.4698 73.5735C33.7459 76.4687 36.3753 77.5063 38.4149 77.2469C40.5431 76.9799 42.039 75.4655 42.4361 73.1844V18.434C42.4361 14.6919 39.5291 12.735 36.6568 12.735C35.2341 12.735 33.9271 13.208 32.9825 14.0701C31.9146 15.0429 31.3478 16.4809 31.3478 18.228C31.3478 18.5675 31.182 18.8841 30.9006 19.0748C30.6191 19.2694 30.2606 19.3113 29.9406 19.1931C27.369 18.228 24.4427 18.9909 22.4918 21.1309C21.0421 22.7216 19.9858 25.3879 21.3622 28.1192C21.5164 28.4167 21.5087 28.7715 21.3467 29.069C21.1848 29.3627 20.8879 29.5611 20.5525 29.5992C16.9361 30.0074 15.6522 32.1245 15.2127 33.8257C14.6151 36.145 15.3669 38.5749 16.4156 39.3073C16.7472 39.54 16.9129 39.9443 16.8358 40.341C16.7626 40.7377 16.458 41.0543 16.0647 41.1497C13.6011 41.7486 12.3442 44.2281 12.19 46.4176C12.0435 48.4889 12.8146 51.0714 15.4209 52.1051C15.737 52.2272 15.9722 52.498 16.0493 52.8299C16.1264 53.1579 16.0339 53.5013 15.8026 53.753C13.9944 55.7175 13.7862 58.3076 15.2512 60.6803C16.7163 63.0605 19.3419 64.3689 21.4894 63.7968C21.8711 63.6938 22.2798 63.8158 22.5381 64.1057C22.8002 64.3995 22.8735 64.8152 22.7231 65.1738C21.8904 67.2108 22.4802 69.5033 24.3039 71.3038C26.2625 73.2378 28.9381 73.913 31.1242 73.0318C31.2514 72.9784 31.3864 72.9555 31.5175 72.9555Z" fill="#1B3B6F"/>
</g>
<path d="M34.8022 23.7095C34.7444 23.7095 34.6865 23.7057 34.6287 23.6943C32.5352 23.351 31.0354 22.4774 30.1679 21.0966C29.2118 19.5784 29.0961 17.5032 29.8325 15.1001C29.9983 14.5584 30.5805 14.2494 31.1279 14.4134C31.6793 14.5775 31.9916 15.1535 31.8219 15.699C31.2667 17.5185 31.3053 19.01 31.9337 20.0094C32.4735 20.8639 33.4952 21.4208 34.968 21.6649C35.5347 21.7565 35.9203 22.2867 35.8239 22.8474C35.7391 23.351 35.2996 23.7095 34.8022 23.7095Z" fill="#1B3B6F"/>
<path d="M18.7597 42.3017C17.3755 42.3017 15.9799 41.699 15.1124 40.9094C14.6883 40.5241 14.6613 39.8718 15.0507 39.4522C15.4362 39.0364 16.0955 39.0059 16.5196 39.3912C17.1404 39.9558 18.59 40.5279 19.577 40.0854C20.1014 39.8489 20.7182 40.0778 20.9573 40.5928C21.1925 41.1116 20.965 41.7219 20.4406 41.9584C19.9086 42.1987 19.3341 42.3017 18.7597 42.3017Z" fill="#1B3B6F"/>
<path d="M31.5136 75.0001C31.0817 75.0001 30.6769 74.7331 30.5304 74.3059C30.3415 73.768 30.6307 73.1806 31.1704 72.9975C32.3541 72.5931 34.463 71.239 34.8794 68.7328C34.9719 68.1682 35.5078 67.7906 36.0746 67.8822C36.6413 67.9737 37.0269 68.5039 36.9343 69.0647C36.4293 72.0972 34.0196 74.1991 31.8528 74.9429C31.741 74.9811 31.6254 75.0001 31.5136 75.0001Z" fill="#1B3B6F"/>
<path d="M27.3034 33.3642C26.8716 33.3642 26.4667 33.0933 26.3202 32.6661C25.3602 29.8815 22.1178 29.4428 20.537 29.603C19.9664 29.6602 19.4537 29.2444 19.3958 28.6799C19.3418 28.1153 19.7582 27.6118 20.3288 27.5546C21.8248 27.4058 23.4402 27.6576 24.7665 28.2488C26.4899 29.0156 27.7044 30.3125 28.2865 32.0024C28.4754 32.5402 28.1824 33.1239 27.6388 33.307C27.527 33.3451 27.4152 33.3642 27.3034 33.3642Z" fill="#1B3B6F"/>
<path d="M16.8666 54.3939C15.9066 54.3939 15.0969 54.2146 14.6111 53.9972C14.0868 53.7683 13.8516 53.158 14.0868 52.6392C14.3181 52.1204 14.935 51.8877 15.4593 52.1204C15.9837 52.3493 17.5529 52.5247 18.9871 51.9106C20.2825 51.3498 21.2156 50.2818 21.7515 48.7292C21.9404 48.1914 22.5303 47.9053 23.0739 48.0884C23.6175 48.2715 23.9067 48.8589 23.7216 49.3968C22.9929 51.4872 21.6435 53.0092 19.816 53.7988C18.7982 54.2337 17.7649 54.3939 16.8666 54.3939Z" fill="#1B3B6F"/>
<path d="M21.7592 65.8185C21.6359 65.8185 21.5086 65.7956 21.3853 65.7498C20.8494 65.5438 20.5833 64.9449 20.7915 64.4147C21.5549 62.4731 22.9429 60.8557 24.7048 59.8639C26.4861 58.8569 28.4446 58.6013 30.2181 59.1392C30.7656 59.307 31.0741 59.883 30.9044 60.4247C30.7386 60.9702 30.1565 61.2753 29.6051 61.1075C27.0027 60.3179 23.9183 62.1336 22.7308 65.1624C22.5689 65.5705 22.1756 65.8185 21.7592 65.8185Z" fill="#1B3B6F"/>
<path d="M30.222 42.2445C28.6142 42.2445 26.9718 41.6647 25.6687 40.6119C24.2884 39.4942 23.4595 37.9645 23.3939 36.4082C23.3708 35.8437 23.818 35.363 24.3925 35.3401C24.967 35.3172 25.4489 35.7597 25.4759 36.3243C25.5144 37.2932 26.0658 38.2735 26.9834 39.0174C28.1092 39.929 29.5742 40.3448 30.9044 40.135C32.4427 39.8871 34.3435 38.7313 34.6288 36.2747C34.6943 35.7101 35.2071 35.3058 35.7777 35.3706C36.3483 35.4355 36.7608 35.9466 36.6953 36.5112C36.5179 38.0218 35.8702 39.3645 34.8138 40.3906C33.8577 41.3175 32.5854 41.9508 31.2321 42.1644C30.9005 42.2178 30.5612 42.2445 30.222 42.2445Z" fill="#1B3B6F"/>
<path d="M34.0852 65.0365C33.503 65.0365 32.9131 64.9564 32.3271 64.7962C31.7719 64.6474 31.448 64.079 31.5984 63.5335C31.7526 62.9842 32.3232 62.66 32.8784 62.8126C35.2071 63.442 36.9421 62.1717 37.717 60.8939C38.3879 59.7915 38.5382 58.3381 38.118 57.0068C37.7748 55.9235 37.0847 55.0843 36.2211 54.699C35.6967 54.4663 35.4654 53.856 35.7006 53.3372C35.9358 52.8223 36.5488 52.5896 37.0731 52.8223C38.4765 53.4478 39.5792 54.7486 40.1035 56.3927C40.6973 58.2733 40.4737 60.3522 39.5021 61.9543C38.812 63.0872 37.771 63.9989 36.5681 64.5215C35.7816 64.8648 34.9411 65.0365 34.0852 65.0365Z" fill="#1B3B6F"/>
<path d="M43.477 34.1271C43.4693 34.1271 43.4616 34.1271 43.4577 34.1271C42.8832 34.1157 42.4244 33.6465 42.436 33.0781C42.4823 30.6826 41.0326 29.397 39.6639 28.9927C38.2837 28.5884 36.3444 28.8897 35.0374 30.961C34.7328 31.4417 34.0928 31.5866 33.6031 31.2853C33.1173 30.9839 32.9708 30.3507 33.2754 29.8662C34.86 27.3563 37.6013 26.2386 40.2538 27.0206C42.8987 27.7987 44.5719 30.1905 44.518 33.1201C44.5064 33.6808 44.0437 34.1271 43.477 34.1271Z" fill="#1B3B6F"/>
<path d="M43.4771 52.9024C42.972 52.9024 42.5286 52.54 42.4515 52.0327C41.9619 48.9314 39.7373 47.5925 37.8211 47.3751C35.9242 47.1576 33.2601 47.9892 32.0071 51.0485C31.7912 51.5749 31.182 51.8305 30.65 51.6169C30.1179 51.4033 29.8634 50.8006 30.0793 50.2741C30.7887 48.5385 31.9608 47.1576 33.4606 46.2879C34.8408 45.4869 36.4717 45.1474 38.0602 45.3305C41.426 45.7157 43.9552 48.2219 44.5065 51.7161C44.5952 52.2768 44.2058 52.8032 43.639 52.8909C43.585 52.8986 43.5311 52.9024 43.4771 52.9024Z" fill="#1B3B6F"/>
</g>
<defs>
<clipPath id="clip0_108_56">
<rect width="90" height="90" fill="white"/>
</clipPath>
</defs>
</svg>
